<svg width="1200" height="360" viewBox="0 0 1200 360" fill="none" xmlns="http://www.w3.org/2000/svg">
<defs>
<linearGradient id="bg" x1="0" y1="0" x2="1200" y2="360"><stop stop-color="#160A24"/><stop offset=".45" stop-color="#090611"/><stop offset="1" stop-color="#0B0818"/></linearGradient>
<linearGradient id="purple" x1="0" y1="0" x2="1" y2="1"><stop stop-color="#7E22CE"/><stop offset=".5" stop-color="#C084FC"/><stop offset="1" stop-color="#6D28D9"/></linearGradient>
<filter id="shadow"><feDropShadow dx="0" dy="10" stdDeviation="18" flood-color="#000" flood-opacity=".55"/></filter>
</defs>
<rect x="8" y="8" width="1184" height="344" rx="18" fill="url(#bg)" stroke="#5B2A82" stroke-width="1.5" filter="url(#shadow)"/>
<path d="M10 10H420L145 351H10V10Z" fill="#12091D"/>
<path d="M10 10H102L392 351H268L10 82V10Z" fill="#5B267E" opacity=".65"/>
<path d="M105 10H174L454 351H385L105 10Z" fill="url(#purple)" opacity=".82"/>
<path d="M10 160L130 10H245L10 288V160Z" fill="#24113B"/>
<path d="M245 10H350L80 351H10V305L245 10Z" fill="#08050D" opacity=".9"/>
<path d="M350 10H420L150 351H82L350 10Z" fill="#2A1342" opacity=".75"/>
<line x1="445" y1="55" x2="445" y2="305" stroke="#7C3AED" stroke-opacity=".35"/>
<g transform="translate(505 46)">
<path d="M43 0L86 75H62L43 42L24 75H0L43 0Z" fill="url(#purple)"/>
<path d="M43 42L62 75H48L43 65L38 75H24L43 42Z" fill="#0B0815"/>
<path d="M43 13L56 36L43 58L30 36L43 13Z" fill="#0B0815"/>
</g>
<text x="505" y="155" fill="#F8FAFC" font-family="Arial,Helvetica,sans-serif" font-size="50" font-weight="700" letter-spacing="5">VAN</text>
<text x="648" y="154" fill="#C084FC" font-family="Arial,Helvetica,sans-serif" font-size="22">(vn002-tech)</text>
<line x1="505" y1="176" x2="1135" y2="176" stroke="#7C3AED" stroke-opacity=".55"/>
<text x="505" y="211" fill="#E9D5FF" font-family="Arial,Helvetica,sans-serif" font-size="22" font-weight="600" letter-spacing="1">AI ENGINEER &amp; MLOPS ENGINEER</text>
<text x="505" y="245" fill="#CBD5E1" font-family="Arial,Helvetica,sans-serif" font-size="16">Python · PyTorch · PySpark · Airflow · MLflow · PostgreSQL</text>
<rect x="505" y="268" width="185" height="45" rx="8" fill="#0C0915" stroke="#382050"/>
<circle cx="528" cy="290" r="11" fill="#F8FAFC"/><text x="528" y="295" text-anchor="middle" fill="#0B0815" font-family="Arial" font-size="11" font-weight="700">GH</text>
<text x="548" y="296" fill="#CBD5E1" font-family="Arial,Helvetica,sans-serif" font-size="13">github.com/vn002-tech</text>
<rect x="700" y="268" width="205" height="45" rx="8" fill="#0C0915" stroke="#382050"/>
<rect x="718" y="279" width="22" height="22" rx="4" fill="#2563EB"/>
<text x="729" y="295" text-anchor="middle" fill="#fff" font-family="Arial" font-size="12" font-weight="700">in</text>
<text x="750" y="296" fill="#CBD5E1" font-family="Arial,Helvetica,sans-serif" font-size="13">LinkedIn</text>
<rect x="915" y="268" width="220" height="45" rx="8" fill="#0C0915" stroke="#382050"/>
<text x="933" y="296" fill="#C084FC" font-family="Arial,Helvetica,sans-serif" font-size="13">✉</text>
<text x="956" y="296" fill="#CBD5E1" font-family="Arial,Helvetica,sans-serif" font-size="13">wahidivansaputra@gmail.com</text>
</svg>